{
	"asset":{
		"generator":"Khronos glTF Blender I/O v5.1.18",
		"version":"2.0"
	},
	"extensionsUsed":[
		"KHR_materials_clearcoat",
		"KHR_materials_transmission",
		"KHR_materials_specular",
		"KHR_materials_ior"
	],
	"scene":0,
	"scenes":[
		{
			"name":"Scene",
			"nodes":[
				0,
				1,
				2,
				3,
				4
			]
		}
	],
	"nodes":[
		{
			"mesh":0,
			"name":"Floor.001",
			"translation":[
				-9.373055458068848,
				0.03470472991466522,
				0.01605423353612423
			]
		},
		{
			"mesh":1,
			"name":"Wooden_Boundary-2",
			"translation":[
				-27.96601104736328,
				0.9641890525817871,
				-0.4009284973144531
			]
		},
		{
			"mesh":2,
			"name":"Wooden_Boundary-1",
			"translation":[
				-9.189449310302734,
				0.9643203020095825,
				8.480271339416504
			]
		},
		{
			"mesh":3,
			"name":"HouseExterior",
			"translation":[
				-3.1758501529693604,
				0,
				-0.5221086144447327
			]
		},
		{
			"mesh":4,
			"name":"Water",
			"translation":[
				-9.373055458068848,
				0.03470472991466522,
				0.01605423353612423
			]
		}
	],
	"materials":[
		{
			"doubleSided":true,
			"extensions":{
				"KHR_materials_clearcoat":{
					"clearcoatRoughnessFactor":1.4500000476837158
				}
			},
			"name":"Swimming_Pool_Stair-1",
			"normalTexture":{
				"index":0
			},
			"pbrMetallicRoughness":{
				"baseColorTexture":{
					"index":1
				},
				"metallicRoughnessTexture":{
					"index":2
				}
			}
		},
		{
			"doubleSided":true,
			"extensions":{
				"KHR_materials_clearcoat":{
					"clearcoatRoughnessFactor":1.4500000476837158
				}
			},
			"name":"Ground_Floor-1",
			"normalTexture":{
				"index":3
			},
			"pbrMetallicRoughness":{
				"baseColorTexture":{
					"index":4
				},
				"metallicRoughnessTexture":{
					"index":5
				},
				"roughnessFactor":0.6000000238418579
			}
		},
		{
			"doubleSided":true,
			"extensions":{
				"KHR_materials_clearcoat":{
					"clearcoatRoughnessFactor":1.4500000476837158
				}
			},
			"name":"Ground-1",
			"normalTexture":{
				"index":6
			},
			"pbrMetallicRoughness":{
				"baseColorTexture":{
					"index":7
				},
				"metallicRoughnessTexture":{
					"index":8
				}
			}
		},
		{
			"doubleSided":true,
			"extensions":{
				"KHR_materials_clearcoat":{
					"clearcoatRoughnessFactor":1.4500000476837158
				}
			},
			"name":"Wooden_Boundary-1",
			"normalTexture":{
				"index":9
			},
			"pbrMetallicRoughness":{
				"baseColorTexture":{
					"index":10
				},
				"metallicFactor":0,
				"metallicRoughnessTexture":{
					"index":11
				}
			}
		},
		{
			"doubleSided":true,
			"extensions":{
				"KHR_materials_clearcoat":{
					"clearcoatRoughnessFactor":1.4500000476837158
				},
				"KHR_materials_transmission":{
					"transmissionFactor":1
				},
				"KHR_materials_specular":{
					"specularColorFactor":[
						0.37867599725723267,
						1.0,
						1.0
					]
				},
				"KHR_materials_ior":{
					"ior":1.3300000429153442
				}
			},
			"name":"Swimming_Pool_Water-1",
			"pbrMetallicRoughness":{
				"baseColorFactor":[
					0.37867599725723267,
					1,
					1,
					1
				],
				"metallicFactor":0,
				"roughnessFactor":0
			}
		}
	],
	"meshes":[
		{
			"name":"geometry-5.001",
			"primitives":[
				{
					"attributes":{
						"POSITION":0,
						"NORMAL":1,
						"TEXCOORD_0":2
					},
					"indices":3,
					"material":0
				},
				{
					"attributes":{
						"POSITION":4,
						"NORMAL":5,
						"TEXCOORD_0":6
					},
					"indices":7,
					"material":1
				},
				{
					"attributes":{
						"POSITION":8,
						"NORMAL":9,
						"TEXCOORD_0":10
					},
					"indices":11,
					"material":2
				}
			]
		},
		{
			"name":"geometry-5.004",
			"primitives":[
				{
					"attributes":{
						"POSITION":12,
						"NORMAL":13,
						"TEXCOORD_0":14
					},
					"indices":15,
					"material":3
				}
			]
		},
		{
			"name":"geometry-5.005",
			"primitives":[
				{
					"attributes":{
						"POSITION":16,
						"NORMAL":17,
						"TEXCOORD_0":18
					},
					"indices":19,
					"material":3
				}
			]
		},
		{
			"name":"Cube.005",
			"primitives":[
				{
					"attributes":{
						"POSITION":20,
						"NORMAL":21,
						"TEXCOORD_0":22
					},
					"indices":23
				}
			]
		},
		{
			"name":"geometry-5.002",
			"primitives":[
				{
					"attributes":{
						"POSITION":24,
						"NORMAL":25,
						"TEXCOORD_0":26
					},
					"indices":27,
					"material":4
				}
			]
		}
	],
	"textures":[
		{
			"sampler":0,
			"source":0
		},
		{
			"sampler":0,
			"source":1
		},
		{
			"sampler":0,
			"source":2
		},
		{
			"sampler":0,
			"source":3
		},
		{
			"sampler":0,
			"source":4
		},
		{
			"sampler":0,
			"source":5
		},
		{
			"sampler":0,
			"source":6
		},
		{
			"sampler":0,
			"source":7
		},
		{
			"sampler":0,
			"source":8
		},
		{
			"sampler":0,
			"source":9
		},
		{
			"sampler":0,
			"source":10
		},
		{
			"sampler":0,
			"source":11
		}
	],
	"images":[
		{
			"mimeType":"image/jpeg",
			"name":"Swimming_Pool_Stair_H",
			"uri":"../textures/Swimming_Pool_Stair_H.jpg"
		},
		{
			"mimeType":"image/jpeg",
			"name":"Swimming_Pool_Stair_C",
			"uri":"../textures/Swimming_Pool_Stair_C.jpg"
		},
		{
			"mimeType":"image/jpeg",
			"name":"Swimming_Pool_Stair_R",
			"uri":"../textures/Swimming_Pool_Stair_R.jpg"
		},
		{
			"mimeType":"image/jpeg",
			"name":"Ground_Floor_H",
			"uri":"../textures/Ground_Floor_H.jpg"
		},
		{
			"mimeType":"image/jpeg",
			"name":"Ground_Floor_C",
			"uri":"../textures/Ground_Floor_C.jpg"
		},
		{
			"mimeType":"image/jpeg",
			"name":"Ground_Floor_M",
			"uri":"../textures/Ground_Floor_M.jpg"
		},
		{
			"mimeType":"image/jpeg",
			"name":"Ground_H",
			"uri":"../textures/Ground_H.jpg"
		},
		{
			"mimeType":"image/jpeg",
			"name":"Ground_C",
			"uri":"../textures/Ground_C.jpg"
		},
		{
			"mimeType":"image/jpeg",
			"name":"Ground_R",
			"uri":"../textures/Ground_R.jpg"
		},
		{
			"mimeType":"image/jpeg",
			"name":"Font_Wooden_Boundary_H",
			"uri":"../textures/Font_Wooden_Boundary_H.jpg"
		},
		{
			"mimeType":"image/jpeg",
			"name":"Font_Wooden_Boundary_C",
			"uri":"../textures/Font_Wooden_Boundary_C.jpg"
		},
		{
			"mimeType":"image/jpeg",
			"name":"Font_Wooden_Boundary_R",
			"uri":"../textures/Font_Wooden_Boundary_R.jpg"
		}
	],
	"accessors":[
		{
			"bufferView":0,
			"componentType":5126,
			"count":480,
			"max":[
				-6.452365875244141,
				-0.284824013710022,
				6.507362365722656
			],
			"min":[
				-10.427382469177246,
				-2.053280830383301,
				-7.491015434265137
			],
			"type":"VEC3"
		},
		{
			"bufferView":1,
			"componentType":5126,
			"count":480,
			"type":"VEC3"
		},
		{
			"bufferView":2,
			"componentType":5126,
			"count":480,
			"type":"VEC2"
		},
		{
			"bufferView":3,
			"componentType":5123,
			"count":1296,
			"type":"SCALAR"
		},
		{
			"bufferView":4,
			"componentType":5126,
			"count":328,
			"max":[
				19.03609275817871,
				0.00024115561973303556,
				7.861507892608643
			],
			"min":[
				-17.935361862182617,
				-0.13567353785037994,
				-8.758438110351562
			],
			"type":"VEC3"
		},
		{
			"bufferView":5,
			"componentType":5126,
			"count":328,
			"type":"VEC3"
		},
		{
			"bufferView":6,
			"componentType":5126,
			"count":328,
			"type":"VEC2"
		},
		{
			"bufferView":7,
			"componentType":5123,
			"count":1128,
			"type":"SCALAR"
		},
		{
			"bufferView":8,
			"componentType":5126,
			"count":219,
			"max":[
				19.016658782958984,
				-0.13567295670509338,
				8.539471626281738
			],
			"min":[
				-18.71731185913086,
				-2.890293836593628,
				-9.339927673339844
			],
			"type":"VEC3"
		},
		{
			"bufferView":9,
			"componentType":5126,
			"count":219,
			"type":"VEC3"
		},
		{
			"bufferView":10,
			"componentType":5126,
			"count":219,
			"type":"VEC2"
		},
		{
			"bufferView":11,
			"componentType":5123,
			"count":600,
			"type":"SCALAR"
		},
		{
			"bufferView":12,
			"componentType":5126,
			"count":5814,
			"max":[
				37.56987380981445,
				0.9949349164962769,
				8.859136581420898
			],
			"min":[
				-0.016750678420066833,
				-1.0602827072143555,
				-8.859298706054688
			],
			"type":"VEC3"
		},
		{
			"bufferView":13,
			"componentType":5126,
			"count":5814,
			"type":"VEC3"
		},
		{
			"bufferView":14,
			"componentType":5126,
			"count":5814,
			"type":"VEC2"
		},
		{
			"bufferView":15,
			"componentType":5123,
			"count":8280,
			"type":"SCALAR"
		},
		{
			"bufferView":16,
			"componentType":5126,
			"count":17244,
			"max":[
				18.75484275817871,
				0.9948982000350952,
				0.017174556851387024
			],
			"min":[
				-18.754533767700195,
				-1.060508370399475,
				-17.779573440551758
			],
			"type":"VEC3"
		},
		{
			"bufferView":17,
			"componentType":5126,
			"count":17244,
			"type":"VEC3"
		},
		{
			"bufferView":18,
			"componentType":5126,
			"count":17244,
			"type":"VEC2"
		},
		{
			"bufferView":19,
			"componentType":5123,
			"count":26568,
			"type":"SCALAR"
		},
		{
			"bufferView":20,
			"componentType":5126,
			"count":82,
			"max":[
				8.889355659484863,
				10.899120330810547,
				4.849700450897217
			],
			"min":[
				-9.710644721984863,
				0,
				-4.150300025939941
			],
			"type":"VEC3"
		},
		{
			"bufferView":21,
			"componentType":5126,
			"count":82,
			"type":"VEC3"
		},
		{
			"bufferView":22,
			"componentType":5126,
			"count":82,
			"type":"VEC2"
		},
		{
			"bufferView":23,
			"componentType":5123,
			"count":192,
			"type":"SCALAR"
		},
		{
			"bufferView":24,
			"componentType":5126,
			"count":2704,
			"max":[
				-6.449926376342773,
				-0.2435155212879181,
				6.585200309753418
			],
			"min":[
				-16.749704360961914,
				-0.2435155212879181,
				-7.574265956878662
			],
			"type":"VEC3"
		},
		{
			"bufferView":25,
			"componentType":5126,
			"count":2704,
			"type":"VEC3"
		},
		{
			"bufferView":26,
			"componentType":5126,
			"count":2704,
			"type":"VEC2"
		},
		{
			"bufferView":27,
			"componentType":5123,
			"count":15606,
			"type":"SCALAR"
		}
	],
	"bufferViews":[
		{
			"buffer":0,
			"byteLength":5760,
			"byteOffset":0,
			"target":34962
		},
		{
			"buffer":0,
			"byteLength":5760,
			"byteOffset":5760,
			"target":34962
		},
		{
			"buffer":0,
			"byteLength":3840,
			"byteOffset":11520,
			"target":34962
		},
		{
			"buffer":0,
			"byteLength":2592,
			"byteOffset":15360,
			"target":34963
		},
		{
			"buffer":0,
			"byteLength":3936,
			"byteOffset":17952,
			"target":34962
		},
		{
			"buffer":0,
			"byteLength":3936,
			"byteOffset":21888,
			"target":34962
		},
		{
			"buffer":0,
			"byteLength":2624,
			"byteOffset":25824,
			"target":34962
		},
		{
			"buffer":0,
			"byteLength":2256,
			"byteOffset":28448,
			"target":34963
		},
		{
			"buffer":0,
			"byteLength":2628,
			"byteOffset":30704,
			"target":34962
		},
		{
			"buffer":0,
			"byteLength":2628,
			"byteOffset":33332,
			"target":34962
		},
		{
			"buffer":0,
			"byteLength":1752,
			"byteOffset":35960,
			"target":34962
		},
		{
			"buffer":0,
			"byteLength":1200,
			"byteOffset":37712,
			"target":34963
		},
		{
			"buffer":0,
			"byteLength":69768,
			"byteOffset":38912,
			"target":34962
		},
		{
			"buffer":0,
			"byteLength":69768,
			"byteOffset":108680,
			"target":34962
		},
		{
			"buffer":0,
			"byteLength":46512,
			"byteOffset":178448,
			"target":34962
		},
		{
			"buffer":0,
			"byteLength":16560,
			"byteOffset":224960,
			"target":34963
		},
		{
			"buffer":0,
			"byteLength":206928,
			"byteOffset":241520,
			"target":34962
		},
		{
			"buffer":0,
			"byteLength":206928,
			"byteOffset":448448,
			"target":34962
		},
		{
			"buffer":0,
			"byteLength":137952,
			"byteOffset":655376,
			"target":34962
		},
		{
			"buffer":0,
			"byteLength":53136,
			"byteOffset":793328,
			"target":34963
		},
		{
			"buffer":0,
			"byteLength":984,
			"byteOffset":846464,
			"target":34962
		},
		{
			"buffer":0,
			"byteLength":984,
			"byteOffset":847448,
			"target":34962
		},
		{
			"buffer":0,
			"byteLength":656,
			"byteOffset":848432,
			"target":34962
		},
		{
			"buffer":0,
			"byteLength":384,
			"byteOffset":849088,
			"target":34963
		},
		{
			"buffer":0,
			"byteLength":32448,
			"byteOffset":849472,
			"target":34962
		},
		{
			"buffer":0,
			"byteLength":32448,
			"byteOffset":881920,
			"target":34962
		},
		{
			"buffer":0,
			"byteLength":21632,
			"byteOffset":914368,
			"target":34962
		},
		{
			"buffer":0,
			"byteLength":31212,
			"byteOffset":936000,
			"target":34963
		}
	],
	"samplers":[
		{
			"magFilter":9729,
			"minFilter":9987
		}
	],
	"buffers":[
		{
			"byteLength":967212,
			"uri":"Outdoor_clean.bin"
		}
	]
}
